<svg width="400" height="400" viewBox="0 0 400 400" xmlns="http://www.w3.org/2000/svg">
   <g>
      <path
         d="m 0,0 c -16.181,-17.258 -38.166,-22.935 -64.779,-25.627 -53.887,-5.449 -100.569,18.616 -106.223,78.744 -2.403,25.562 3.286,49.862 14.756,69.775 l -6.678,26.262 c -1.078,4.565 3.123,8.907 7.572,7.827 l 23.069,-5.6 c 13.718,11.264 30.312,18.625 48.616,20.476 15.657,1.583 30.837,-1.043 44.638,-7.031 l 21.684,13.118 c 4.081,2.468 9.248,-0.322 9.638,-5.205 l 1.25,-30.935 v -0.001 c 16.676,-17.605 28.031,-41.649 30.598,-68.952 1.45,-15.422 -0.15,-27.219 -4.238,-38.474 -1.914,-5.268 -2.49,-9.723 0.97,-14.132 3.342,-4.26 8.643,-12.531 14.554,-11.145 8.884,2.083 18.398,1.528 24.278,-2.144 11.181,20.995 17.526,44.956 17.526,70.403 0,82.842 -67.157,150 -150,150 -82.843,0 -150,-67.158 -150,-150 0,-82.843 67.157,-150 150,-150 42.48,0 80.831,17.663 108.123,46.04 -4.787,0.718 -9.683,2.577 -14.334,5.677 C 12.089,-14.97 4.163,-9.345 0,0"
         style="fill:#55c500" transform="matrix(1.3333333,0,0,-1.3333333,297.02533,303.14467)" />
      <path
         d="M 0,0 14.009,1.717 13.811,4.241 -0.562,2.48 c -0.617,1.815 -1.313,3.59 -2.082,5.324 l 15.832,5.052 -0.497,3.169 -16.839,-5.832 c -11.295,23.68 -35.716,38.057 -63.365,35.261 -27.605,-2.791 -49.463,-22.668 -56.17,-48.105 l -16.47,2.494 -0.176,-3.236 16.217,-1.758 c -0.44,-1.871 -0.803,-2.98 -1.075,-4.903 l -14.149,-1.129 0.129,-2.531 13.79,1.101 c -0.243,-2.141 -0.388,-3.518 -0.415,-5.707 l -12.598,-5.151 0.618,-3.123 11.997,5.614 c 0.028,-1.673 0.1,-2.565 0.259,-4.258 3.334,-35.464 32.956,-42.476 68.347,-38.897 35.39,3.579 63.147,16.393 59.813,51.857 -0.161,1.702 -0.405,2.586 -0.691,4.241 l 12.995,-2.822 0.303,2.862 L 1.58,-5.409 C 1.152,-3.3 0.624,-2.021 0,0"
         style="fill:#55c500" transform="matrix(1.3333333,0,0,-1.3333333,278.56147,156.51)" />
      <path
         d="m 0,0 -12.996,2.823 c 0.287,-1.656 0.531,-2.54 0.691,-4.242 3.334,-35.463 -24.423,-48.278 -59.813,-51.857 -35.391,-3.578 -65.012,3.433 -68.347,38.897 -0.159,1.693 -0.231,2.586 -0.258,4.259 l -11.998,-5.615 -0.617,3.124 12.597,5.15 c 0.027,2.189 0.173,3.566 0.416,5.707 l -13.79,-1.1 -0.129,2.531 14.149,1.129 c 0.272,1.923 0.635,3.032 1.074,4.903 l -16.217,1.757 0.176,3.237 16.471,-2.495 c 6.707,25.437 28.565,45.314 56.169,48.105 27.649,2.796 52.071,-11.581 63.366,-35.261 l 16.839,5.832 0.496,-3.168 -15.831,-5.053 c 0.769,-1.733 1.464,-3.508 2.082,-5.324 L -1.098,15.1 -0.9,12.576 -14.908,10.859 c 0.624,-2.02 1.152,-3.3 1.58,-5.408 L 0.303,2.862 Z m 34.367,-90.016 c -5.912,-1.386 -11.212,6.884 -14.554,11.144 -3.46,4.41 -2.885,8.865 -0.971,14.133 4.089,11.254 5.688,23.051 4.239,38.473 C 20.513,1.037 9.158,25.081 -7.517,42.687 v 0 l -1.251,30.936 c -0.39,4.882 -5.557,7.672 -9.637,5.204 L -40.089,65.71 c -13.801,5.988 -28.981,8.613 -44.638,7.03 -18.304,-1.851 -34.898,-9.212 -48.616,-20.475 l -23.069,5.6 c -4.449,1.079 -8.65,-3.263 -7.573,-7.828 l 6.679,-26.262 c -11.471,-19.913 -17.16,-44.213 -14.756,-69.774 5.654,-60.129 52.335,-84.194 106.222,-78.744 26.614,2.691 48.598,8.368 64.78,25.626 4.163,-9.345 12.089,-14.969 21.02,-20.923 4.65,-3.1 9.547,-4.96 14.333,-5.678 v 0 c 1.282,1.333 2.537,2.691 3.769,4.071 0.091,0.102 0.181,0.205 0.272,0.307 2.452,2.759 4.803,5.609 7.048,8.545 0.058,0.076 0.117,0.152 0.175,0.228 3.452,4.532 6.653,9.265 9.579,14.181 10e-4,10e-4 0.002,0.003 0.002,0.004 1.216,2.043 2.368,4.128 3.489,6.232 -5.882,3.662 -15.385,4.215 -24.26,2.134"
         style="fill:#ffffff" transform="matrix(1.3333333,0,0,-1.3333333,298.43933,170.9892)" />
   </g>
</svg>
